<svg xmlns="http://www.w3.org/2000/svg" viewBox="0 0 64.79 19.22">
  <path fill="#fff" d="M21,19.17a.27.27,0,0,1-.31-.3V16.33A.27.27,0,0,1,21,16h.86a1.69,1.69,0,0,1,1.22.4,1.52,1.52,0,0,1,.43,1.17,1.51,1.51,0,0,1-.43,1.16,1.7,1.7,0,0,1-1.22.41Zm.27-.47h.56a1,1,0,0,0,1.09-1.1,1,1,0,0,0-1.09-1.1h-.56Z" />
  <path fill="#fff" d="M25.85,19.17a.27.27,0,0,1-.3-.3V16.33a.27.27,0,0,1,.3-.3h1.59c.16,0,.24.07.24.22a.21.21,0,0,1-.24.23H26.1v.87h1.25c.15,0,.23.07.23.22a.2.2,0,0,1-.23.23H26.1v.92h1.34c.16,0,.24.07.24.22s-.08.23-.24.23Z" />
  <path fill="#fff" d="M30.77,19.22a2.71,2.71,0,0,1-.58-.07,1.74,1.74,0,0,1-.5-.2.25.25,0,0,1-.12-.17.28.28,0,0,1,0-.18.23.23,0,0,1,.12-.12.22.22,0,0,1,.19,0,1.28,1.28,0,0,0,.42.17,1.71,1.71,0,0,0,.46.05.88.88,0,0,0,.51-.11.36.36,0,0,0,.16-.31.29.29,0,0,0-.11-.24,1.05,1.05,0,0,0-.39-.15l-.49-.1q-.84-.18-.84-.87a.9.9,0,0,1,.15-.51,1.09,1.09,0,0,1,.44-.34,1.54,1.54,0,0,1,.63-.12,1.7,1.7,0,0,1,.51.07,1.58,1.58,0,0,1,.44.19.26.26,0,0,1,.1.16.25.25,0,0,1,0,.17.24.24,0,0,1-.13.11.32.32,0,0,1-.2,0,1.17,1.17,0,0,0-.33-.14,2.21,2.21,0,0,0-.37,0,.81.81,0,0,0-.48.13.41.41,0,0,0-.18.34.35.35,0,0,0,.11.26.87.87,0,0,0,.37.15l.48.1a1.27,1.27,0,0,1,.66.3.67.67,0,0,1,.22.53.87.87,0,0,1-.15.5,1.1,1.1,0,0,1-.43.33A1.69,1.69,0,0,1,30.77,19.22Z" />
  <path fill="#fff" d="M34.26,19.21a.26.26,0,0,1-.29-.3V16.28a.26.26,0,0,1,.29-.29c.19,0,.28.1.28.29v2.63C34.54,19.11,34.45,19.21,34.26,19.21Z" />
  <path fill="#fff" d="M38.21,19.22a1.84,1.84,0,0,1-.88-.2,1.27,1.27,0,0,1-.54-.56,1.75,1.75,0,0,1-.19-.85,1.8,1.8,0,0,1,.19-.87,1.35,1.35,0,0,1,.55-.56,1.8,1.8,0,0,1,.87-.2,2.14,2.14,0,0,1,.5.06,1.68,1.68,0,0,1,.48.2.23.23,0,0,1,.11.16.29.29,0,0,1,0,.18.22.22,0,0,1-.13.12.25.25,0,0,1-.2,0,1.22,1.22,0,0,0-.34-.14,1.6,1.6,0,0,0-.39-.05,1,1,0,0,0-.76.29,1.22,1.22,0,0,0-.25.84,1.17,1.17,0,0,0,.26.83,1,1,0,0,0,.78.29,1.53,1.53,0,0,0,.3,0l.31-.07V17.9h-.49c-.16,0-.24-.08-.24-.22s.08-.21.24-.21h.73a.2.2,0,0,1,.23.23v1.09a.25.25,0,0,1-.16.26,2.44,2.44,0,0,1-.45.12A2.83,2.83,0,0,1,38.21,19.22Z" />
  <path fill="#fff" d="M41.73,19.21c-.18,0-.27-.09-.27-.28V16.28a.29.29,0,0,1,.07-.22.25.25,0,0,1,.18-.07.21.21,0,0,1,.15,0,.38.38,0,0,1,.12.13l1.6,2.06v-2a.24.24,0,0,1,.26-.27.24.24,0,0,1,.27.27v2.68a.32.32,0,0,1-.06.2.26.26,0,0,1-.17.07.39.39,0,0,1-.17,0L43.58,19,42,17v2C42,19.12,41.9,19.21,41.73,19.21Z" />
  <path fill="#fff" d="M18.38,7.36A4.27,4.27,0,0,1,14,11.72,4.26,4.26,0,0,1,9.57,7.36,4.25,4.25,0,0,1,14,3,4.26,4.26,0,0,1,18.38,7.36Zm-3.14-.19c-.38-2.35-1.16-3.57-1.84-3.49s-1.06,1.51-.69,3.89,1.16,3.57,1.86,3.49S15.61,9.57,15.24,7.17Z" />
  <path fill="#fff" d="M19,4.82c-.19-.13-.31-.23-.31-.38s.12-.22.31-.29.89-.33,1.67-.64A6.52,6.52,0,0,1,22.12,3c.19,0,.21.22.21.33V5C23.11,3.7,24,2.94,25,2.94a1.63,1.63,0,0,1,1.55,1.75,1.5,1.5,0,0,1-1.26,1.64c-.31,0-.62-.15-1-.79-.23-.45-.45-.72-.81-.72s-.64.27-1.17,1v4.4c0,.68.14.89.41,1s.31.09.31.23-.12.17-.33.17H19c-.21,0-.33,0-.33-.17s.1-.18.31-.23.41-.29.41-1V5.6A.85.85,0,0,0,19,4.82Z" />
  <path fill="#fff" d="M27.12,4.82c-.2-.13-.31-.23-.31-.38s.11-.22.31-.29.89-.33,1.66-.64A6.53,6.53,0,0,1,30.24,3c.19,0,.21.22.21.33V5c.77-1.32,1.69-2.08,2.65-2.08a1.63,1.63,0,0,1,1.55,1.75,1.49,1.49,0,0,1-1.26,1.64c-.31,0-.62-.15-1-.79-.24-.45-.45-.72-.82-.72s-.64.27-1.16,1v4.4c0,.68.14.89.41,1s.31.09.31.23-.12.17-.33.17H27.12c-.22,0-.33,0-.33-.17s.1-.18.31-.23.41-.29.41-1V5.6A.85.85,0,0,0,27.12,4.82Z" />
  <path fill="#fff" d="M35.21,5.13C35,5,34.9,4.9,34.9,4.75s.12-.22.31-.29.9-.33,1.67-.64a6.52,6.52,0,0,1,1.45-.49c.2,0,.22.22.22.33v6.59c0,.68.13.89.4,1s.31.09.31.23-.11.17-.33.17H35.21c-.21,0-.32,0-.32-.17s.09-.18.31-.23.4-.29.4-1V5.91A.85.85,0,0,0,35.21,5.13Zm0-3.6A1.7,1.7,0,0,1,37,0a1.72,1.72,0,0,1,1.86,1.53A1.72,1.72,0,0,1,37,3,1.7,1.7,0,0,1,35.18,1.53Z" />
  <path fill="#fff" d="M44.78,10.89a3.15,3.15,0,0,1-2.18.83c-1.77,0-3.05-1.61-3.05-4.07C39.55,4.88,41.28,3,43.8,3a3.1,3.1,0,0,1,1,.16V2.5a.44.44,0,0,0-.38-.43c-.18-.06-.27,0-.27-.17s.11-.21.27-.27L46.06,1A6.53,6.53,0,0,1,47.52.5c.19,0,.21.22.21.33s0,9,0,9.05c0,.68,0,.89.29,1s.27.08.27.19-.17.18-.33.22l-1.51.38a6.22,6.22,0,0,1-1.43.27c-.2,0-.22-.11-.22-.33Zm0-.45V3.76a2.07,2.07,0,0,0-.62-.08c-.94,0-1.64,1.09-1.64,3.47s.93,3.37,1.9,3.37A1.17,1.17,0,0,0,44.78,10.44Z" />
  <path fill="#fff" d="M51.1,9.15c-.35.09-.76.25-.76.42s.7.39,2.56.58c2.61.27,3.72,1,3.72,2.13,0,1.32-1.85,2.29-4.83,2.29-1.45,0-3.5-.29-3.5-1.45,0-.74,1.2-1.17,2.36-1.3-1.18-.27-2-.72-2-1.46s1.16-1.28,2-1.37Zm1.12,2.94L51.83,12c-.66,0-1.24.41-1.24.91s.68,1,2.09,1c1.22,0,1.84-.35,1.84-.81S54.08,12.34,52.22,12.09Z" />
  <path fill="#fff" d="M64.79,6.53c0,.41-.36.58-.83.58H59.85c.3,2.19,1.57,3,2.76,3a2.31,2.31,0,0,0,1.6-.58.22.22,0,0,1,.31.29,3.51,3.51,0,0,1-3.41,1.88,4.17,4.17,0,0,1-4.28-4.26A4.26,4.26,0,0,1,61.13,3,3.5,3.5,0,0,1,64.79,6.53Zm-5-.08H61c.71,0,1-.48,1-1.1,0-.86-.51-1.65-1-1.65s-1.16,1-1.16,2.44Z" />
  <path fill="#fff" d="M55.79,1.49a3.29,3.29,0,0,0-1.88.81h0l-.06.05-.07.06-.2.2-.12.13a3.92,3.92,0,0,0-.37.51l-.58,0a4.3,4.3,0,0,0-3.57,1.23c-.29.38-.26.48.15.75s.56.42.67.21a3.35,3.35,0,0,1,2.75-1.62l.28,0c-.13.25-.21.44-.23.47a.65.65,0,0,1-.35.35,3,3,0,0,0-.93.31c-.14.09-.72.57-.68.72s.88-.15,1.4.39a.2.2,0,0,0,.25,0,1.48,1.48,0,0,0,.42-.43C53,5,52.62,5,52.85,4.5a4,4,0,0,1,.38-.75C55.44,3.75,55.94,4.89,56,5s.22,0,.16-.08-.41-1.29-2.61-1.65a1.2,1.2,0,0,1,.84-.4h.27a2.31,2.31,0,0,1,1.21.49c.53.3,1.13,0,1.13-.87C57,2,56.66,1.49,55.79,1.49Z" />
  <path fill="#fff" d="M56.18,5.34a5.75,5.75,0,0,1-3.74,1.31,5.78,5.78,0,0,1-3.75-1.31.12.12,0,0,0-.2.06,2.44,2.44,0,0,0-.1.71c0,1.79,1.81,3.24,4,3.24s4-1.45,4-3.24a2.82,2.82,0,0,0-.09-.71A.13.13,0,0,0,56.18,5.34Z" />
  <path fill="#fff" d="M.33,4.58C.17,4.5.06,4.46.06,4.33s.13-.18.27-.26l1.38-.64A4.5,4.5,0,0,1,3,2.94c.18,0,.26.16.33.35l.22.55a3.22,3.22,0,0,1,2.27-.9c1.77,0,3,1.64,3,4.11,0,2.84-1.5,4.61-4,4.61a2.68,2.68,0,0,1-1.24-.27v1.14c0,.68.23.9.5,1s.31.09.31.23-.11.17-.33.17H.33c-.21,0-.33,0-.33-.17s.08-.18.31-.23.41-.3.41-1V5.14C.72,4.87.68,4.77.33,4.58Zm3.35-.37V9.75c0,.92.48,1.25.93,1.25.64,0,1.32-.86,1.32-3.27S5.06,4.17,4,4.17A2,2,0,0,0,3.68,4.21Z" />
</svg>
