<svg viewBox="0 0 629 165" fill="none" xmlns="http://www.w3.org/2000/svg">
  <path d="M76.9529 49.761C77.3235 48.5586 76.1191 47.9112 75.5633 48.3736C73.4326 50.131 71.8578 51.1484 68.4302 51.1484C62.3162 51.1484 55.1831 46.0613 55.1831 32.0949C55.1831 25.158 57.3138 20.4409 59.815 20.4409C62.4088 20.4409 63.7984 23.3081 65.4659 27.9328C67.0407 32.4649 68.6155 34.0373 71.7652 34.0373C76.2118 34.0373 78.8056 29.1352 76.7676 24.973C74.4516 20.4409 68.8008 17.2961 61.7603 17.2961C49.9954 17.2961 41.1022 26.3604 41.1022 38.3844C41.1022 50.4085 50.1807 58.7328 61.5751 58.7328C70.283 58.7328 75.656 53.7382 76.9529 49.761Z" fill="#FFFAF7"/>
  <path d="M82.3337 29.5051V51.7034C82.3337 54.9406 81.6853 55.958 80.3884 56.328C79.3694 56.6055 78.9062 56.7905 78.9062 57.4379C78.9062 58.0854 79.4621 58.2704 80.4811 58.2704H98.2673C99.2864 58.2704 99.8422 58.0854 99.8422 57.4379C99.8422 56.7905 99.4717 56.6055 98.36 56.328C97.0631 55.958 96.4146 54.9406 96.4146 51.7034V30.7075C98.9158 27.1003 100.213 25.8054 101.973 25.8054C103.733 25.8054 104.752 27.1003 105.864 29.2277C107.531 32.2799 109.013 33.0199 110.495 33.0199C112.904 33.0199 116.517 30.4301 116.517 25.158C116.517 20.6259 113.46 16.8337 109.106 16.8337C104.474 16.8337 100.12 20.4409 96.4146 26.7304V18.776C96.4146 18.221 96.322 17.2036 95.3956 17.2036C94.284 17.2036 92.3386 18.0361 88.4478 19.5159C84.7423 20.9958 82.0559 22.0132 80.4811 22.5682C79.5547 22.9382 78.9989 23.3081 78.9989 23.9556C78.9989 24.6955 79.5547 25.158 80.4811 25.8054C82.1485 27.0078 82.3337 28.2102 82.3337 29.5051Z" fill="#FFFAF7"/>
  <path d="M137.569 17.2961C125.804 17.2961 117.003 26.3604 117.003 38.3844C117.003 50.4085 126.174 58.7328 137.476 58.7328C146.555 58.7328 152.483 53.7382 153.78 49.761C154.151 48.5586 152.946 47.9112 152.298 48.3736C150.167 50.131 147.944 51.1484 144.609 51.1484C138.958 51.1484 132.844 47.1712 131.455 36.7196H151.094C153.317 36.7196 155.077 35.8871 155.077 33.9448C155.077 24.973 148.037 17.2961 137.569 17.2961ZM131.177 32.0949C131.177 25.158 133.956 20.4409 136.735 20.4409C139.236 20.4409 141.645 24.2331 141.645 28.3027C141.645 31.2625 140.533 33.5748 137.105 33.5748H131.177V32.0949Z" fill="#FFFAF7"/>
  <path d="M175.245 20.3484C178.024 20.3484 179.507 22.9382 179.507 32.0024V34.9622C177.654 34.1298 175.06 33.5748 172.003 33.5748C162.461 33.5748 156.718 39.0319 156.718 46.7088C156.718 53.4607 161.535 58.7328 168.946 58.7328C173.393 58.7328 177.376 55.958 179.877 51.8884C181.267 56.4205 184.138 58.3628 188.863 58.3628C195.348 58.3628 198.219 54.0157 198.219 52.3508C198.219 51.6109 197.849 51.3334 197.571 51.3334C197.108 51.3334 196.274 52.9058 194.977 52.9058C193.773 52.9058 193.495 51.7034 193.495 50.0385V32.8349C193.495 22.2907 186.362 17.2036 175.153 17.2036C168.39 17.2036 161.905 19.7009 159.775 24.5105C158.2 28.1178 161.35 31.4475 165.333 31.4475C168.668 31.4475 169.687 29.5976 170.706 26.3604C171.632 23.5856 173.207 20.3484 175.245 20.3484ZM179.507 38.3844V40.7892C179.507 40.9742 179.414 41.7142 179.414 43.1016V43.934C179.229 48.6511 177.191 51.2409 175.06 51.2409C172.837 51.2409 170.799 48.4661 170.799 44.304C170.799 39.9568 172.929 36.7196 176.357 36.7196C177.839 36.7196 178.765 37.4595 179.507 38.3844Z" fill="#FFFAF7"/>
  <path d="M198.509 20.7183H200.269V47.3562C200.269 52.7208 203.048 58.4553 210.737 58.4553C216.295 58.4553 218.796 55.8655 221.575 52.3508C222.316 51.3334 221.483 50.5935 220.742 50.7784C219.815 51.0559 218.796 51.1484 217.592 51.1484C215.647 51.1484 214.35 49.761 214.35 46.6163V20.7183H220.001C220.834 20.7183 221.205 20.3484 221.205 19.7934V18.4985C221.205 17.9436 220.927 17.5736 220.001 17.5736L214.535 17.6661V10.1742C214.535 8.32434 214.072 7.95437 213.423 7.95437H213.238C211.756 7.95437 210.366 12.394 206.012 14.9838C202.77 16.9262 200.269 17.5736 198.324 17.5736C197.582 17.5736 197.304 18.0361 197.304 18.6835V19.7934C197.304 20.3484 197.582 20.7183 198.509 20.7183Z" fill="#FFFAF7"/>
  <path d="M225.903 30.985V51.7034C225.903 54.9406 225.255 55.958 223.958 56.328C222.939 56.6055 222.476 56.7905 222.476 57.4379C222.476 58.0854 223.032 58.2704 224.051 58.2704H241.837C242.856 58.2704 243.412 58.0854 243.412 57.4379C243.412 56.7905 243.041 56.6055 241.93 56.328C240.633 55.958 239.984 54.9406 239.984 51.7034V20.2559C239.984 19.7009 239.892 18.6835 238.965 18.6835C237.854 18.6835 235.908 19.5159 232.017 20.9958C228.312 22.4757 225.625 23.4931 224.051 24.0481C223.124 24.4181 222.568 24.788 222.568 25.4355C222.568 26.1754 223.124 26.6379 224.051 27.2853C225.718 28.4877 225.903 29.6901 225.903 30.985ZM232.573 17.2961C237.298 17.2961 241.466 14.2439 241.466 10.0817C241.466 5.82704 237.298 2.77478 232.573 2.77478C228.034 2.77478 223.865 5.82704 223.865 10.0817C223.865 14.2439 228.034 17.2961 232.573 17.2961Z" fill="#FFFAF7"/>
  <path d="M263.615 58.2704C264.449 58.2704 264.634 58.1779 265.375 56.7905L278.808 28.1178C281.68 22.2907 283.903 20.6259 288.164 19.331C288.998 19.0535 289.739 18.6835 289.739 18.221C289.739 17.6661 288.905 17.5736 288.164 17.5736H272.045C271.119 17.5736 270.193 17.7586 270.193 18.3135C270.193 18.8685 271.119 19.146 272.045 19.6084C275.102 21.2733 275.288 23.5856 274.269 28.0253C273.435 31.2625 271.582 36.4421 269.637 41.6217L261.948 23.9556C261.114 21.7358 260.466 20.6259 261.577 19.7009C262.411 19.0535 263.152 18.6835 263.152 18.221C263.152 17.6661 262.133 17.5736 261.207 17.5736H242.957C242.124 17.5736 241.568 17.7586 241.568 18.3135C241.568 18.776 242.124 19.146 242.957 19.5159C245.366 20.6259 246.107 22.4757 248.979 29.3202L261.763 56.883C262.411 58.1779 262.874 58.2704 263.615 58.2704Z" fill="#FFFAF7"/>
  <path d="M305.474 17.2961C293.709 17.2961 284.908 26.3604 284.908 38.3844C284.908 50.4085 294.079 58.7328 305.381 58.7328C314.459 58.7328 320.388 53.7382 321.685 49.761C322.056 48.5586 320.851 47.9112 320.203 48.3736C318.072 50.131 315.849 51.1484 312.514 51.1484C306.863 51.1484 300.749 47.1712 299.36 36.7196H318.999C321.222 36.7196 322.982 35.8871 322.982 33.9448C322.982 24.973 315.942 17.2961 305.474 17.2961ZM299.082 32.0949C299.082 25.158 301.861 20.4409 304.64 20.4409C307.141 20.4409 309.55 24.2331 309.55 28.3027C309.55 31.2625 308.438 33.5748 305.01 33.5748H299.082V32.0949Z" fill="#FFFAF7"/>
  <path d="M343.741 20.7183H346.335V51.7034C346.335 55.0331 345.038 55.8655 343.463 56.328C342.444 56.6055 341.981 56.7905 341.981 57.4379C341.981 58.0854 342.63 58.2704 343.649 58.2704H363.103C364.029 58.2704 364.677 58.0854 364.677 57.4379C364.677 56.7905 364.214 56.6055 363.195 56.328C361.62 55.8655 360.323 55.0331 360.323 51.7034C360.323 51.0559 360.416 24.1406 360.416 20.7183H366.067C366.993 20.7183 367.364 20.3484 367.364 19.7934V18.4985C367.364 17.9436 367.086 17.5736 366.16 17.5736H360.416C358.563 16.5562 355.969 14.1514 355.969 9.80422C355.969 5.54956 357.822 3.23724 360.509 3.23724C361.991 3.23724 362.917 3.88469 362.917 4.43965C362.917 4.90211 360.323 6.19701 360.323 9.24926C360.323 12.209 362.176 14.3364 365.419 14.3364C368.939 14.3364 371.625 11.8391 371.162 7.86188C370.606 3.42223 365.789 0 359.768 0C352.264 0 346.428 6.19701 346.428 17.4811V17.5736H343.649C342.722 17.5736 342.537 17.9436 342.537 18.4985V19.7934C342.537 20.3484 342.722 20.7183 343.741 20.7183Z" fill="#FFFAF7"/>
  <path d="M368.37 27.3778V47.8187C368.37 53.0908 372.168 58.8253 380.042 58.8253C385.323 58.8253 389.306 55.2181 391.066 51.1484V58.0854C391.066 59.1028 391.251 59.4728 392.178 59.6577C393.289 59.7502 394.957 59.2878 398.94 58.3628L406.166 56.513C406.907 56.328 407.741 56.0505 407.741 55.4956C407.833 54.9406 407.37 54.8481 406.536 54.5706C405.239 54.2007 405.147 53.1833 405.147 49.946V18.776C405.147 18.221 405.054 17.2036 404.128 17.2036C403.016 17.2036 401.071 18.0361 397.18 19.5159C393.475 20.9958 390.788 22.0132 389.213 22.5682C388.565 22.8457 387.916 23.2156 387.916 23.7706C387.916 24.2331 388.565 24.6955 389.491 25.2505C390.51 25.8979 391.066 26.1754 391.066 27.3778V47.3562C390.881 49.761 389.121 51.3334 386.712 51.3334C384.118 51.3334 382.451 49.6685 382.451 46.9862V18.776C382.451 18.221 382.358 17.2036 381.432 17.2036C380.32 17.2036 378.375 18.0361 374.484 19.5159C370.779 20.9958 368.092 22.0132 366.517 22.5682C365.869 22.8457 365.22 23.2156 365.22 23.7706C365.22 24.2331 365.869 24.6955 366.795 25.2505C367.814 25.8979 368.37 26.1754 368.37 27.3778Z" fill="#FFFAF7"/>
  <path d="M429.864 17.2961C418.1 17.2961 409.299 26.3604 409.299 38.3844C409.299 50.4085 418.47 58.7328 429.772 58.7328C438.85 58.7328 444.779 53.7382 446.076 49.761C446.446 48.5586 445.242 47.9112 444.594 48.3736C442.463 50.131 440.24 51.1484 436.905 51.1484C431.254 51.1484 425.14 47.1712 423.75 36.7196H443.389C445.613 36.7196 447.373 35.8871 447.373 33.9448C447.373 24.973 440.332 17.2961 429.864 17.2961ZM423.472 32.0949C423.472 25.158 426.251 20.4409 429.031 20.4409C431.532 20.4409 433.94 24.2331 433.94 28.3027C433.94 31.2625 432.829 33.5748 429.401 33.5748H423.472V32.0949Z" fill="#FFFAF7"/>
  <path d="M452.249 14.7063V51.7034C452.249 54.9406 451.601 55.958 450.304 56.328C449.285 56.6055 448.822 56.7905 448.822 57.4379C448.822 58.0854 449.378 58.2704 450.397 58.2704H468.183C469.202 58.2704 469.758 58.0854 469.758 57.4379C469.758 56.7905 469.387 56.6055 468.275 56.328C466.979 55.958 466.33 54.9406 466.33 51.7034V6.75196C466.33 6.19701 466.237 5.17959 465.311 5.17959C464.199 5.17959 462.254 6.01202 458.363 7.4919L450.397 10.5442C449.748 10.8216 449.1 11.2841 449.1 11.8391C449.1 12.4865 449.563 12.394 450.397 12.6715C451.508 12.949 452.249 13.5964 452.249 14.7063Z" fill="#FFFAF7"/>
  <path d="M489.573 20.7183H492.166V51.7034C492.166 55.0331 490.87 55.8655 489.295 56.328C488.276 56.6055 487.813 56.7905 487.813 57.4379C487.813 58.0854 488.461 58.2704 489.48 58.2704H508.934C509.86 58.2704 510.509 58.0854 510.509 57.4379C510.509 56.7905 510.045 56.6055 509.026 56.328C507.452 55.8655 506.155 55.0331 506.155 51.7034C506.155 51.0559 506.247 24.1406 506.247 20.7183H511.898C512.825 20.7183 513.195 20.3484 513.195 19.7934V18.4985C513.195 17.9436 512.917 17.5736 511.991 17.5736H506.247C504.395 16.5562 501.801 14.1514 501.801 9.80422C501.801 5.54956 503.654 3.23724 506.34 3.23724C507.822 3.23724 508.749 3.88469 508.749 4.43965C508.749 4.90211 506.155 6.19701 506.155 9.24926C506.155 12.209 508.008 14.3364 511.25 14.3364C514.77 14.3364 517.456 11.8391 516.993 7.86188C516.437 3.42223 511.62 0 505.599 0C498.095 0 492.259 6.19701 492.259 17.4811V17.5736H489.48C488.554 17.5736 488.368 17.9436 488.368 18.4985V19.7934C488.368 20.3484 488.554 20.7183 489.573 20.7183Z" fill="#FFFAF7"/>
  <path d="M533.099 17.2036C520.686 17.2036 511.978 26.2679 511.978 37.922C511.978 49.6685 520.686 58.7328 533.099 58.7328C545.327 58.7328 554.128 49.6685 554.128 37.922C554.128 26.2679 545.327 17.2036 533.099 17.2036ZM535.878 55.5881C532.543 55.958 528.838 50.2235 526.985 38.9394C525.225 27.5628 526.8 20.7183 530.32 20.3484C533.562 19.9784 537.268 25.8054 539.121 36.997C540.881 48.4661 539.306 55.2181 535.878 55.5881Z" fill="#FFFAF7"/>
  <path d="M558.999 29.5051V51.7034C558.999 54.9406 558.351 55.958 557.054 56.328C556.035 56.6055 555.572 56.7905 555.572 57.4379C555.572 58.0854 556.127 58.2704 557.146 58.2704H574.933C575.952 58.2704 576.508 58.0854 576.508 57.4379C576.508 56.7905 576.137 56.6055 575.025 56.328C573.728 55.958 573.08 54.9406 573.08 51.7034V30.7075C575.581 27.1003 576.878 25.8054 578.638 25.8054C580.398 25.8054 581.417 27.1003 582.529 29.2277C584.196 32.2799 585.679 33.0199 587.161 33.0199C589.569 33.0199 593.182 30.4301 593.182 25.158C593.182 20.6259 590.125 16.8337 585.771 16.8337C581.139 16.8337 576.785 20.4409 573.08 26.7304V18.776C573.08 18.221 572.987 17.2036 572.061 17.2036C570.949 17.2036 569.004 18.0361 565.113 19.5159C561.408 20.9958 558.721 22.0132 557.146 22.5682C556.22 22.9382 555.664 23.3081 555.664 23.9556C555.664 24.6955 556.22 25.158 557.146 25.8054C558.814 27.0078 558.999 28.2102 558.999 29.5051Z" fill="#FFFAF7"/>
  <path d="M11.8576 156.398C9.63433 154.271 8.05945 153.438 5.74352 153.438C2.6865 153.531 0 155.658 0 158.895C0 162.41 2.87174 165 8.33733 165C15.4704 165 20.5655 159.543 25.29 149.831L39.7413 121.621C42.7984 115.979 45.2069 114.222 49.3756 112.927C50.2093 112.649 50.9505 112.279 50.9505 111.817C50.9505 111.262 50.1167 111.169 49.3756 111.169H33.2568C32.3304 111.169 31.404 111.354 31.404 111.909C31.404 112.464 32.3304 112.742 33.2568 113.204C36.3138 114.869 36.4065 117.089 35.2022 121.436C34.2758 124.673 32.3304 129.668 30.1071 134.755L22.1403 117.366C21.2139 115.146 20.5655 114.222 21.5845 113.297C22.5108 112.649 23.1593 112.279 23.1593 111.817C23.1593 111.262 22.233 111.169 21.3992 111.169H2.87181C2.13072 111.169 1.48219 111.354 1.48219 111.909C1.48219 112.372 2.13072 112.742 2.87181 113.112C5.18774 114.129 6.20669 116.071 9.26371 123.008L22.5109 150.109C17.7864 158.341 14.4515 158.895 11.8576 156.398Z" fill="#FFFAF7"/>
  <path d="M67.4254 110.799C55.012 110.799 46.3041 119.864 46.3041 131.518C46.3041 143.264 55.012 152.329 67.4254 152.329C79.6535 152.329 88.4541 143.264 88.4541 131.518C88.4541 119.864 79.6535 110.799 67.4254 110.799ZM70.2045 149.184C66.8696 149.554 63.164 143.819 61.3113 132.535C59.5512 121.159 61.126 114.314 64.6462 113.944C67.8885 113.574 71.5941 119.401 73.4468 130.593C75.2069 142.062 73.6321 148.814 70.2045 149.184Z" fill="#FFFAF7"/>
  <path d="M93.3081 120.974V141.414C93.3081 146.686 97.1062 152.421 104.98 152.421C110.261 152.421 114.244 148.814 116.004 144.744V151.681C116.004 152.698 116.189 153.068 117.116 153.253C118.227 153.346 119.895 152.883 123.878 151.959L131.104 150.109C131.845 149.924 132.679 149.646 132.679 149.091C132.771 148.536 132.308 148.444 131.475 148.166C130.178 147.796 130.085 146.779 130.085 143.542V112.372C130.085 111.817 129.992 110.799 129.066 110.799C127.954 110.799 126.009 111.632 122.118 113.112C118.413 114.592 115.726 115.609 114.151 116.164C113.503 116.441 112.855 116.811 112.855 117.366C112.855 117.829 113.503 118.291 114.429 118.846C115.448 119.494 116.004 119.771 116.004 120.974V140.952C115.819 143.357 114.059 144.929 111.65 144.929C109.056 144.929 107.389 143.264 107.389 140.582V112.372C107.389 111.817 107.296 110.799 106.37 110.799C105.258 110.799 103.313 111.632 99.4222 113.112C95.7167 114.592 93.0302 115.609 91.4553 116.164C90.8069 116.441 90.1584 116.811 90.1584 117.366C90.1584 117.829 90.8069 118.291 91.7332 118.846C92.7522 119.494 93.3081 119.771 93.3081 120.974Z" fill="#FFFAF7"/>
  <path d="M137.563 123.101V145.299C137.563 148.536 136.915 149.554 135.618 149.924C134.599 150.201 134.136 150.386 134.136 151.034C134.136 151.681 134.692 151.866 135.711 151.866H153.497C154.516 151.866 155.072 151.681 155.072 151.034C155.072 150.386 154.701 150.201 153.59 149.924C152.293 149.554 151.644 148.536 151.644 145.299V124.303C154.145 120.696 155.442 119.401 157.202 119.401C158.963 119.401 159.982 120.696 161.093 122.823C162.761 125.876 164.243 126.616 165.725 126.616C168.134 126.616 171.746 124.026 171.746 118.754C171.746 114.222 168.689 110.429 164.336 110.429C159.704 110.429 155.35 114.037 151.644 120.326V112.372C151.644 111.817 151.552 110.799 150.625 110.799C149.514 110.799 147.568 111.632 143.677 113.112C139.972 114.592 137.285 115.609 135.711 116.164C134.784 116.534 134.228 116.904 134.228 117.551C134.228 118.291 134.784 118.754 135.711 119.401C137.378 120.604 137.563 121.806 137.563 123.101Z" fill="#FFFAF7"/>
  <path d="M208.24 163.613C209.907 164.538 211.945 162.965 210.37 161.67C206.109 157.693 201.94 148.444 201.94 127.818C201.94 107.192 206.109 97.9429 210.37 94.0582C211.945 92.6708 209.907 91.0984 208.24 92.0233C196.012 98.6828 189.342 113.482 189.342 127.818C189.342 142.154 196.012 156.953 208.24 163.613Z" fill="#FFFAF7"/>
  <path d="M232.827 113.944C235.606 113.944 237.088 116.534 237.088 125.598V128.558C235.236 127.725 232.642 127.171 229.585 127.171C220.043 127.171 214.3 132.628 214.3 140.304C214.3 147.056 219.117 152.329 226.528 152.329C230.974 152.329 234.958 149.554 237.459 145.484C238.848 150.016 241.72 151.959 246.445 151.959C252.929 151.959 255.801 147.611 255.801 145.947C255.801 145.207 255.43 144.929 255.153 144.929C254.689 144.929 253.856 146.501 252.559 146.501C251.354 146.501 251.077 145.299 251.077 143.634V126.431C251.077 115.886 243.943 110.799 232.734 110.799C225.972 110.799 219.487 113.297 217.357 118.106C215.782 121.713 218.931 125.043 222.915 125.043C226.25 125.043 227.269 123.193 228.288 119.956C229.214 117.181 230.789 113.944 232.827 113.944ZM237.088 131.98V134.385C237.088 134.57 236.996 135.31 236.996 136.697V137.53C236.81 142.247 234.772 144.837 232.642 144.837C230.418 144.837 228.38 142.062 228.38 137.9C228.38 133.553 230.511 130.315 233.939 130.315C235.421 130.315 236.347 131.055 237.088 131.98Z" fill="#FFFAF7"/>
  <path d="M280.383 151.681C280.383 152.698 280.476 153.068 281.402 153.253C282.514 153.346 284.181 152.883 288.257 151.959L295.483 150.109C296.224 149.924 296.965 149.646 297.058 149.091C297.058 148.536 296.595 148.444 295.761 148.166C294.464 147.796 294.371 146.779 294.371 143.542C294.371 143.357 294.464 100.348 294.464 100.348C294.464 99.7927 294.371 98.7753 293.445 98.7753C292.333 98.7753 290.388 99.6077 286.497 101.088L278.53 104.14C277.789 104.417 277.233 104.88 277.233 105.435C277.233 106.082 277.697 105.99 278.53 106.267C279.642 106.545 280.383 107.192 280.383 108.302V111.632C278.901 111.169 277.419 110.892 275.659 110.892C263.616 110.892 255.371 119.679 255.371 132.905C255.371 144.652 261.485 152.329 269.915 152.329C274.269 152.329 277.975 150.664 280.383 148.351V151.681ZM278.623 146.594C273.991 146.594 269.545 142.432 269.545 130.5C269.545 119.124 272.88 113.944 277.419 113.944C278.438 113.944 279.457 114.037 280.383 114.314V146.224C279.827 146.409 279.179 146.594 278.623 146.594Z" fill="#FFFAF7"/>
  <path d="M301.223 92.0233C299.555 91.0984 297.517 92.6708 299.092 94.0582C303.354 97.9429 307.522 107.192 307.522 127.818C307.522 148.444 303.354 157.693 299.092 161.67C297.517 162.965 299.555 164.538 301.223 163.613C313.451 156.953 320.121 142.154 320.121 127.818C320.121 113.482 313.451 98.6828 301.223 92.0233Z" fill="#FFFAF7"/>
  <path d="M341.281 151.866C342.114 151.866 342.3 151.774 343.041 150.386L356.473 121.713C359.345 115.886 361.568 114.222 365.829 112.927C366.663 112.649 367.404 112.279 367.404 111.817C367.404 111.262 366.57 111.169 365.829 111.169H349.711C348.784 111.169 347.858 111.354 347.858 111.909C347.858 112.464 348.784 112.742 349.711 113.204C352.768 114.869 352.953 117.181 351.934 121.621C351.1 124.858 349.247 130.038 347.302 135.217L339.613 117.551C338.779 115.331 338.131 114.222 339.242 113.297C340.076 112.649 340.817 112.279 340.817 111.817C340.817 111.262 339.798 111.169 338.872 111.169H320.622C319.789 111.169 319.233 111.354 319.233 111.909C319.233 112.372 319.789 112.742 320.622 113.112C323.031 114.222 323.772 116.071 326.644 122.916L339.428 150.479C340.076 151.774 340.539 151.866 341.281 151.866Z" fill="#FFFAF7"/>
  <path d="M383.139 110.892C371.374 110.892 362.573 119.956 362.573 131.98C362.573 144.004 371.744 152.329 383.046 152.329C392.125 152.329 398.053 147.334 399.35 143.357C399.721 142.154 398.517 141.507 397.868 141.969C395.737 143.727 393.514 144.744 390.179 144.744C384.528 144.744 378.414 140.767 377.025 130.315H396.664C398.887 130.315 400.647 129.483 400.647 127.54C400.647 118.569 393.607 110.892 383.139 110.892ZM376.747 125.691C376.747 118.754 379.526 114.037 382.305 114.037C384.806 114.037 387.215 117.829 387.215 121.898C387.215 124.858 386.103 127.171 382.676 127.171H376.747V125.691Z" fill="#FFFAF7"/>
  <path d="M405.524 123.101V145.299C405.524 148.536 404.875 149.554 403.578 149.924C402.559 150.201 402.096 150.386 402.096 151.034C402.096 151.681 402.652 151.866 403.671 151.866H421.457C422.476 151.866 423.032 151.681 423.032 151.034C423.032 150.386 422.662 150.201 421.55 149.924C420.253 149.554 419.604 148.536 419.604 145.299V122.361C419.79 119.956 421.457 118.291 423.958 118.291C426.552 118.291 428.22 120.141 428.22 122.731V145.299C428.22 148.536 427.571 149.554 426.274 149.924C425.163 150.201 424.792 150.386 424.792 151.034C424.792 151.681 425.348 151.866 426.367 151.866H444.153C445.172 151.866 445.728 151.681 445.728 151.034C445.728 150.386 445.358 150.201 444.246 149.924C442.949 149.554 442.301 148.536 442.301 145.299V121.991C442.301 116.071 438.78 110.799 430.628 110.799C425.255 110.799 421.272 114.499 419.604 118.569V112.372C419.604 111.817 419.512 110.799 418.586 110.799C417.474 110.799 415.528 111.632 411.638 113.112C407.932 114.592 405.246 115.609 403.671 116.164C402.745 116.534 402.189 116.904 402.189 117.551C402.189 118.291 402.745 118.754 403.671 119.401C405.338 120.604 405.524 121.806 405.524 123.101Z" fill="#FFFAF7"/>
  <path d="M447.426 114.314H449.186V140.952C449.186 146.316 451.965 152.051 459.654 152.051C465.212 152.051 467.714 149.461 470.493 145.947C471.234 144.929 470.4 144.189 469.659 144.374C468.733 144.652 467.714 144.744 466.509 144.744C464.564 144.744 463.267 143.357 463.267 140.212V114.314H468.918C469.752 114.314 470.122 113.944 470.122 113.389V112.094C470.122 111.539 469.844 111.169 468.918 111.169L463.452 111.262V103.77C463.452 101.92 462.989 101.55 462.341 101.55H462.155C460.673 101.55 459.284 105.99 454.93 108.58C451.687 110.522 449.186 111.169 447.241 111.169C446.5 111.169 446.222 111.632 446.222 112.279V113.389C446.222 113.944 446.5 114.314 447.426 114.314Z" fill="#FFFAF7"/>
  <path d="M474.984 120.974V141.414C474.984 146.686 478.782 152.421 486.657 152.421C491.937 152.421 495.92 148.814 497.68 144.744V151.681C497.68 152.698 497.866 153.068 498.792 153.253C499.904 153.346 501.571 152.883 505.555 151.959L512.78 150.109C513.521 149.924 514.355 149.646 514.355 149.091C514.448 148.536 513.984 148.444 513.151 148.166C511.854 147.796 511.761 146.779 511.761 143.542V112.372C511.761 111.817 511.668 110.799 510.742 110.799C509.63 110.799 507.685 111.632 503.794 113.112C500.089 114.592 497.402 115.609 495.828 116.164C495.179 116.441 494.531 116.811 494.531 117.366C494.531 117.829 495.179 118.291 496.105 118.846C497.124 119.494 497.68 119.771 497.68 120.974V140.952C497.495 143.357 495.735 144.929 493.326 144.929C490.733 144.929 489.065 143.264 489.065 140.582V112.372C489.065 111.817 488.972 110.799 488.046 110.799C486.934 110.799 484.989 111.632 481.098 113.112C477.393 114.592 474.706 115.609 473.131 116.164C472.483 116.441 471.835 116.811 471.835 117.366C471.835 117.829 472.483 118.291 473.409 118.846C474.428 119.494 474.984 119.771 474.984 120.974Z" fill="#FFFAF7"/>
  <path d="M519.239 123.101V145.299C519.239 148.536 518.591 149.554 517.294 149.924C516.275 150.201 515.812 150.386 515.812 151.034C515.812 151.681 516.368 151.866 517.387 151.866H535.173C536.192 151.866 536.748 151.681 536.748 151.034C536.748 150.386 536.377 150.201 535.266 149.924C533.969 149.554 533.32 148.536 533.32 145.299V124.303C535.821 120.696 537.118 119.401 538.878 119.401C540.639 119.401 541.658 120.696 542.769 122.823C544.437 125.876 545.919 126.616 547.401 126.616C549.81 126.616 553.422 124.026 553.422 118.754C553.422 114.222 550.365 110.429 546.012 110.429C541.38 110.429 537.026 114.037 533.32 120.326V112.372C533.32 111.817 533.228 110.799 532.301 110.799C531.19 110.799 529.244 111.632 525.353 113.112C521.648 114.592 518.962 115.609 517.387 116.164C516.46 116.534 515.905 116.904 515.905 117.551C515.905 118.291 516.46 118.754 517.387 119.401C519.054 120.604 519.239 121.806 519.239 123.101Z" fill="#FFFAF7"/>
  <path d="M574.474 110.892C562.71 110.892 553.909 119.956 553.909 131.98C553.909 144.004 563.08 152.329 574.382 152.329C583.46 152.329 589.389 147.334 590.686 143.357C591.057 142.154 589.852 141.507 589.204 141.969C587.073 143.727 584.85 144.744 581.515 144.744C575.864 144.744 569.75 140.767 568.36 130.315H588C590.223 130.315 591.983 129.483 591.983 127.54C591.983 118.569 584.942 110.892 574.474 110.892ZM568.082 125.691C568.082 118.754 570.862 114.037 573.641 114.037C576.142 114.037 578.55 117.829 578.55 121.898C578.55 124.858 577.439 127.171 574.011 127.171H568.082V125.691Z" fill="#FFFAF7"/>
  <path d="M611.028 152.329C623.998 152.329 629 145.947 629 139.934C629 134.57 626.406 131.24 615.475 126.153C609.268 123.193 606.674 121.158 606.674 117.829C606.674 115.701 608.249 113.944 611.028 113.944C613.807 113.944 615.197 116.071 615.846 119.031C616.587 122.823 618.717 124.303 621.311 124.303C624.739 124.303 627.703 122.546 627.147 118.384C626.499 113.944 620.199 110.799 612.418 110.799C603.247 110.799 595.465 115.331 595.465 122.361C595.465 128.558 599.819 131.98 607.601 135.68C615.012 139.01 616.587 141.322 616.587 144.559C616.587 147.426 614.456 149.184 611.584 149.184C608.898 149.184 607.045 148.166 606.026 143.449C605.007 138.917 603.803 137.067 600.746 137.067C596.577 137.067 593.335 139.565 593.89 143.912C594.539 149.554 602.043 152.329 611.028 152.329Z" fill="#FFFAF7"/>
</svg>
